<svg width="307" height="49" viewBox="0 0 307 49" fill="none" xmlns="http://www.w3.org/2000/svg">
<path d="M14.72 7.296L24.192 6.016L19.648 27.392C21.696 27.2213 23.5733 26.3253 25.28 24.704C27.0293 23.0827 28.3947 21.0773 29.376 18.688C30.3573 16.2987 30.848 13.952 30.848 11.648C30.848 9.088 30.1867 6.99733 28.864 5.376C27.5413 3.75466 25.5573 2.944 22.912 2.944C17.7067 2.944 13.632 4.30933 10.688 7.04C7.78667 9.77066 6.336 13.5893 6.336 18.496C6.336 20.0747 6.48533 21.184 6.784 21.824C7.08267 22.4213 7.232 22.7627 7.232 22.848C4.928 22.848 3.2 22.3787 2.048 21.44C0.938667 20.4587 0.384 18.8587 0.384 16.64C0.384 13.9093 1.49333 11.264 3.712 8.704C5.97333 6.10133 8.85333 4.01067 12.352 2.432C15.8507 0.810664 19.3493 -3.8147e-06 22.848 -3.8147e-06C26.2187 -3.8147e-06 29.0347 0.575996 31.296 1.728C33.5573 2.88 35.2213 4.416 36.288 6.336C37.3973 8.21333 37.952 10.304 37.952 12.608C37.952 15.3813 37.184 18.0907 35.648 20.736C34.1547 23.3813 32 25.5573 29.184 27.264C26.368 28.928 23.1253 29.76 19.456 29.76H19.136L15.232 48H6.016L14.72 7.296ZM44.3675 48.384C41.9355 48.384 39.9088 47.552 38.2875 45.888C36.6662 44.224 35.8555 41.6213 35.8555 38.08C35.8555 34.9227 36.4742 31.616 37.7115 28.16C38.9915 24.6613 40.8688 21.7173 43.3435 19.328C45.8608 16.896 48.8475 15.68 52.3035 15.68C54.0528 15.68 55.3542 15.9787 56.2075 16.576C57.0608 17.1733 57.4875 17.9627 57.4875 18.944V19.392L58.1915 16H67.4075L62.7995 37.76C62.6288 38.4 62.5435 39.0827 62.5435 39.808C62.5435 41.6427 63.4182 42.56 65.1675 42.56C66.3622 42.56 67.3862 42.0053 68.2395 40.896C69.1355 39.7867 69.8395 38.336 70.3515 36.544H73.0395C71.4608 41.152 69.4982 44.288 67.1515 45.952C64.8475 47.5733 62.5222 48.384 60.1755 48.384C58.3835 48.384 56.9328 47.8933 55.8235 46.912C54.7568 45.888 54.1168 44.416 53.9035 42.496C52.6662 44.2453 51.2795 45.6747 49.7435 46.784C48.2502 47.8507 46.4582 48.384 44.3675 48.384ZM48.5275 42.176C49.5942 42.176 50.6395 41.6853 51.6635 40.704C52.7302 39.68 53.4555 38.2933 53.8395 36.544L56.9115 22.08C56.9115 21.5253 56.6982 20.992 56.2715 20.48C55.8448 19.9253 55.1835 19.648 54.2875 19.648C52.5808 19.648 51.0448 20.6507 49.6795 22.656C48.3142 24.6187 47.2475 27.008 46.4795 29.824C45.7115 32.5973 45.3275 35.0507 45.3275 37.184C45.3275 39.3173 45.6262 40.6827 46.2235 41.28C46.8635 41.8773 47.6315 42.176 48.5275 42.176ZM77.671 48.384C75.623 48.384 73.895 48 72.487 47.232C71.079 46.4213 70.0337 45.3973 69.351 44.16C68.6683 42.88 68.327 41.5573 68.327 40.192C68.327 38.784 68.6683 37.568 69.351 36.544C69.991 35.4773 70.7803 34.7093 71.719 34.24C73.383 31.2533 74.8337 28.2453 76.071 25.216C77.3083 22.144 78.4817 18.8373 79.591 15.296L89.063 14.016C89.2763 19.4773 89.639 25.3867 90.151 31.744C90.3643 34.304 90.471 36.16 90.471 37.312C90.471 38.2933 90.3857 39.104 90.215 39.744C92.2203 38.592 93.7563 37.5253 94.823 36.544H97.511C94.7803 39.7013 91.5163 42.368 87.719 44.544C86.4817 45.8667 84.9457 46.848 83.111 47.488C81.319 48.0853 79.5057 48.384 77.671 48.384ZM75.623 43.328C77.2017 43.328 78.5243 42.8587 79.591 41.92C80.6577 40.9813 81.191 39.4667 81.191 37.376C81.191 36.096 81.063 34.304 80.807 32C80.3803 27.136 80.103 23.872 79.975 22.208C78.951 25.5787 77.223 29.6107 74.791 34.304C75.7723 34.816 76.263 35.5627 76.263 36.544C76.263 37.3547 75.9857 38.08 75.431 38.72C74.919 39.36 74.2577 39.68 73.447 39.68C72.551 39.68 71.975 39.4027 71.719 38.848C71.719 40.384 72.0177 41.5147 72.615 42.24C73.255 42.9653 74.2577 43.328 75.623 43.328ZM101.149 48.384C99.1005 48.384 97.4365 47.744 96.1565 46.464C94.9192 45.184 94.3005 43.264 94.3005 40.704C94.3005 39.6373 94.4712 38.2507 94.8125 36.544L98.6525 18.56H96.5405L97.0525 16H99.1645L101.085 7.168L110.557 5.888L108.381 16H112.221L111.708 18.56H107.869L103.773 37.76C103.602 38.4 103.517 39.0827 103.517 39.808C103.517 40.6613 103.709 41.28 104.093 41.664C104.519 42.0053 105.202 42.176 106.141 42.176C107.378 42.176 108.53 41.664 109.597 40.64C110.663 39.5733 111.431 38.208 111.901 36.544H114.589C113.01 41.152 110.983 44.288 108.509 45.952C106.034 47.5733 103.581 48.384 101.149 48.384ZM119.555 48.384C117.123 48.384 115.096 47.552 113.475 45.888C111.854 44.224 111.043 41.6213 111.043 38.08C111.043 34.9227 111.662 31.616 112.899 28.16C114.179 24.6613 116.056 21.7173 118.531 19.328C121.048 16.896 124.035 15.68 127.491 15.68C129.24 15.68 130.542 15.9787 131.395 16.576C132.248 17.1733 132.675 17.9627 132.675 18.944V19.392L133.379 16H142.595L137.987 37.76C137.816 38.4 137.731 39.0827 137.731 39.808C137.731 40.6613 137.923 41.28 138.307 41.664C138.734 42.0053 139.416 42.176 140.355 42.176C140.952 42.176 141.422 42.0907 141.763 41.92C140.824 44.3093 139.928 45.9947 139.075 46.976C138.222 47.9147 136.984 48.384 135.363 48.384C133.614 48.384 132.184 47.872 131.075 46.848C130.008 45.7813 129.347 44.3093 129.091 42.432C126.488 46.4 123.31 48.384 119.555 48.384ZM123.715 42.176C124.782 42.176 125.827 41.6853 126.851 40.704C127.918 39.68 128.643 38.2933 129.027 36.544L132.099 22.08C132.099 21.5253 131.886 20.992 131.459 20.48C131.032 19.9253 130.371 19.648 129.475 19.648C127.768 19.648 126.232 20.6507 124.867 22.656C123.502 24.6187 122.435 27.008 121.667 29.824C120.899 32.5973 120.515 35.0507 120.515 37.184C120.515 39.3173 120.814 40.6827 121.411 41.28C122.051 41.8773 122.819 42.176 123.715 42.176ZM171.305 4.48C168.446 5.67467 166.228 7.46667 164.649 9.856C163.113 12.2453 162.345 15.1253 162.345 18.496C162.345 20.0747 162.494 21.184 162.793 21.824C163.092 22.4213 163.241 22.7627 163.241 22.848C160.937 22.848 159.209 22.3787 158.057 21.44C156.948 20.4587 156.393 18.8587 156.393 16.64C156.393 13.9093 157.502 11.264 159.721 8.704C161.982 6.10133 164.862 4.01067 168.361 2.432C171.86 0.810664 175.358 -3.8147e-06 178.857 -3.8147e-06C179.454 -3.8147e-06 180.308 0.0426636 181.417 0.127998L177.321 19.2H186.729L190.825 0.127998H200.041L189.865 48H180.649L185.769 23.936H176.361L171.241 48H162.025L171.305 4.48ZM207.532 48.256C204.374 48.256 201.878 47.4453 200.044 45.824C198.209 44.2027 197.291 41.6427 197.291 38.144C197.291 35.2427 197.889 32.0213 199.084 28.48C200.278 24.9387 202.198 21.888 204.844 19.328C207.489 16.7253 210.817 15.424 214.828 15.424C220.289 15.424 223.02 18.8373 223.02 25.664V25.728C223.148 25.7707 223.382 25.792 223.724 25.792C225.132 25.792 226.753 25.4293 228.588 24.704C230.422 23.936 232.086 23.0187 233.58 21.952L234.156 23.68C232.918 25.0027 231.297 26.1333 229.292 27.072C227.329 27.968 225.174 28.608 222.828 28.992C222.486 32.8747 221.612 36.2667 220.204 39.168C218.796 42.0693 216.982 44.3093 214.764 45.888C212.545 47.4667 210.134 48.256 207.532 48.256ZM210.092 42.496C211.116 42.496 212.14 41.92 213.164 40.768C214.188 39.5733 215.084 37.9733 215.852 35.968C216.62 33.92 217.174 31.6587 217.516 29.184C216.364 28.928 215.788 28.032 215.788 26.496C215.788 24.7467 216.449 23.5947 217.772 23.04C217.686 21.632 217.473 20.672 217.132 20.16C216.79 19.6053 216.193 19.328 215.34 19.328C213.932 19.328 212.566 20.352 211.244 22.4C209.921 24.448 208.854 26.9013 208.044 29.76C207.233 32.6187 206.828 35.136 206.828 37.312C206.828 39.36 207.062 40.7467 207.532 41.472C208.001 42.1547 208.854 42.496 210.092 42.496ZM232.649 48.384C230.601 48.384 228.937 47.744 227.657 46.464C226.419 45.184 225.8 43.264 225.8 40.704C225.8 39.6373 225.971 38.2507 226.312 36.544L230.665 16H239.881L235.273 37.76C235.145 38.4 235.081 38.9973 235.081 39.552C235.081 41.3013 235.721 42.176 237.001 42.176C238.195 42.176 239.219 41.6853 240.073 40.704C240.926 39.68 241.609 38.2933 242.121 36.544L246.473 16H255.689L251.081 37.76C250.91 38.4 250.825 39.0827 250.825 39.808C250.825 40.6613 251.017 41.28 251.401 41.664C251.827 42.0053 252.51 42.176 253.449 42.176C254.643 42.176 255.667 41.664 256.521 40.64C257.417 39.616 258.121 38.2507 258.632 36.544H261.321C259.742 41.152 257.779 44.288 255.433 45.952C253.129 47.5733 250.803 48.384 248.457 48.384C246.622 48.384 245.15 47.872 244.041 46.848C242.974 45.824 242.334 44.3093 242.121 42.304C240.67 44.6507 239.134 46.2507 237.513 47.104C235.934 47.9573 234.313 48.384 232.649 48.384ZM265.921 48.384C263.873 48.384 262.145 48 260.737 47.232C259.329 46.4213 258.284 45.3973 257.601 44.16C256.918 42.88 256.577 41.5573 256.577 40.192C256.577 38.784 256.918 37.568 257.601 36.544C258.241 35.4773 259.03 34.7093 259.969 34.24C261.633 31.2533 263.084 28.2453 264.321 25.216C265.558 22.144 266.732 18.8373 267.841 15.296L277.313 14.016C277.526 19.4773 277.889 25.3867 278.401 31.744C278.614 34.304 278.721 36.16 278.721 37.312C278.721 38.2933 278.636 39.104 278.465 39.744C280.47 38.592 282.006 37.5253 283.073 36.544H285.761C283.03 39.7013 279.766 42.368 275.969 44.544C274.732 45.8667 273.196 46.848 271.361 47.488C269.569 48.0853 267.756 48.384 265.921 48.384ZM263.873 43.328C265.452 43.328 266.774 42.8587 267.841 41.92C268.908 40.9813 269.441 39.4667 269.441 37.376C269.441 36.096 269.313 34.304 269.057 32C268.63 27.136 268.353 23.872 268.225 22.208C267.201 25.5787 265.473 29.6107 263.041 34.304C264.022 34.816 264.513 35.5627 264.513 36.544C264.513 37.3547 264.236 38.08 263.681 38.72C263.169 39.36 262.508 39.68 261.697 39.68C260.801 39.68 260.225 39.4027 259.969 38.848C259.969 40.384 260.268 41.5147 260.865 42.24C261.505 42.9653 262.508 43.328 263.873 43.328ZM292.087 48.384C288.972 48.384 286.54 47.5733 284.791 45.952C283.041 44.288 282.166 41.7067 282.166 38.208C282.166 35.264 282.742 32.0213 283.895 28.48C285.047 24.9387 286.924 21.888 289.527 19.328C292.129 16.7253 295.436 15.424 299.447 15.424C304.14 15.424 306.487 17.472 306.487 21.568C306.487 23.9573 305.804 26.1547 304.439 28.16C303.073 30.1653 301.26 31.7867 298.999 33.024C296.737 34.2187 294.327 34.9013 291.767 35.072C291.681 36.0107 291.639 36.6507 291.639 36.992C291.639 40.5333 292.961 42.304 295.607 42.304C296.801 42.304 298.081 41.984 299.447 41.344C300.812 40.704 302.049 39.8933 303.159 38.912C302.007 45.2267 298.316 48.384 292.087 48.384ZM292.215 32C293.836 31.9573 295.351 31.424 296.759 30.4C298.209 29.376 299.361 28.0747 300.215 26.496C301.111 24.8747 301.559 23.1893 301.559 21.44C301.559 19.6907 301.025 18.816 299.958 18.816C298.465 18.816 296.972 20.1813 295.479 22.912C294.028 25.6 292.94 28.6293 292.215 32Z" fill="white"/>
</svg>
